<?xml version="1.0" encoding="UTF-8" standalone="no"?>
<!DOCTYPE svg PUBLIC "-//W3C//DTD SVG 1.1//EN"
 "http://www.w3.org/Graphics/SVG/1.1/DTD/svg11.dtd">
<!-- Generated by graphviz version 2.43.0 (0)
 -->
<!-- Title: G Pages: 1 -->
<svg width="988pt" height="444pt"
 viewBox="0.00 0.00 988.00 444.00" xmlns="http://www.w3.org/2000/svg" xmlns:xlink="http://www.w3.org/1999/xlink">
<g id="graph0" class="graph" transform="scale(1 1) rotate(0) translate(4 440)">
<title>G</title>
<polygon fill="white" stroke="transparent" points="-4,4 -4,-440 984,-440 984,4 -4,4"/>
<g id="clust1" class="cluster">
<title>cluster_root</title>
<g id="a_clust1"><a xlink:title="eventq_index=0&#10;full_system=false&#10;sim_quantum=0&#10;time_sync_enable=false&#10;time_sync_period=100000000000&#10;time_sync_spin_threshold=100000000">
<path fill="#bab6ae" stroke="#000000" d="M20,-8C20,-8 960,-8 960,-8 966,-8 972,-14 972,-20 972,-20 972,-416 972,-416 972,-422 966,-428 960,-428 960,-428 20,-428 20,-428 14,-428 8,-422 8,-416 8,-416 8,-20 8,-20 8,-14 14,-8 20,-8"/>
<text text-anchor="middle" x="490" y="-412.8" font-family="Arial" font-size="14.00" fill="#000000">root </text>
<text text-anchor="middle" x="490" y="-397.8" font-family="Arial" font-size="14.00" fill="#000000">: Root</text>
</a>
</g>
</g>
<g id="clust2" class="cluster">
<title>cluster_system</title>
<g id="a_clust2"><a xlink:title="auto_unlink_shared_backstore=false&#10;cache_line_size=64&#10;eventq_index=0&#10;exit_on_work_items=false&#10;init_param=0&#10;m5ops_base=0&#10;mem_mode=timing&#10;mem_ranges=0:536870912&#10;memories=system.mem_ctrls.dram&#10;mmap_using_noreserve=false&#10;multi_thread=false&#10;&#10;um_work_ids=16&#10;&#13;eadfile=&#10;&#13;edirect_paths=system.redirect_paths0 system.redirect_paths1 system.redirect_paths2&#10;shadow_rom_ranges=&#10;shared_backstore=&#10;symbolfile=&#10;thermal_components=&#10;thermal_model=Null&#10;work_begin_ckpt_count=0&#10;work_begin_cpu_id_exit=&#45;1&#10;work_begin_exit_count=0&#10;work_cpus_ckpt_count=0&#10;work_end_ckpt_count=0&#10;work_end_exit_count=0&#10;work_item_id=&#45;1&#10;workload=system.workload">
<path fill="#e4e7eb" stroke="#000000" d="M28,-16C28,-16 952,-16 952,-16 958,-16 964,-22 964,-28 964,-28 964,-370 964,-370 964,-376 958,-382 952,-382 952,-382 28,-382 28,-382 22,-382 16,-376 16,-370 16,-370 16,-28 16,-28 16,-22 22,-16 28,-16"/>
<text text-anchor="middle" x="490" y="-366.8" font-family="Arial" font-size="14.00" fill="#000000">system </text>
<text text-anchor="middle" x="490" y="-351.8" font-family="Arial" font-size="14.00" fill="#000000">: System</text>
</a>
</g>
</g>
<g id="clust4" class="cluster">
<title>cluster_system_cpu</title>
<g id="a_clust4"><a xlink:title="branchPred=Null&#10;checker=Null&#10;clk_domain=system.cpu_clk_domain&#10;cpu_id=0&#10;decoder=system.cpu.decoder&#10;do_checkpoint_insts=true&#10;do_statistics_insts=true&#10;eventq_index=0&#10;function_trace=false&#10;function_trace_start=0&#10;interrupts=system.cpu.interrupts&#10;isa=system.cpu.isa&#10;max_insts_all_threads=0&#10;max_insts_any_thread=100000000&#10;mmu=system.cpu.mmu&#10;&#10;umThreads=1&#10;power_gating_on_idle=false&#10;power_model=&#10;power_state=system.cpu.power_state&#10;progress_interval=0&#10;pwr_gating_latency=300&#10;simpoint_start_insts=&#10;socket_id=0&#10;switched_out=false&#10;syscallRetryLatency=10000&#10;system=system&#10;tracer=system.cpu.tracer&#10;workload=system.cpu.workload">
<path fill="#bbc6d9" stroke="#000000" d="M572,-24C572,-24 944,-24 944,-24 950,-24 956,-30 956,-36 956,-36 956,-240 956,-240 956,-246 950,-252 944,-252 944,-252 572,-252 572,-252 566,-252 560,-246 560,-240 560,-240 560,-36 560,-36 560,-30 566,-24 572,-24"/>
<text text-anchor="middle" x="758" y="-236.8" font-family="Arial" font-size="14.00" fill="#000000">cpu </text>
<text text-anchor="middle" x="758" y="-221.8" font-family="Arial" font-size="14.00" fill="#000000">: MipsTimingSimpleCPU</text>
</a>
</g>
</g>
<g id="clust13" class="cluster">
<title>cluster_system_cpu_icache</title>
<g id="a_clust13"><a xlink:title="addr_ranges=0:18446744073709551615&#10;assoc=2&#10;clk_domain=system.cpu_clk_domain&#10;clusivity=mostly_incl&#10;compressor=Null&#10;data_latency=2&#10;demand_mshr_reserve=1&#10;eventq_index=0&#10;is_read_only=true&#10;max_miss_count=0&#10;move_contractions=true&#10;mshrs=4&#10;power_model=&#10;power_state=system.cpu.icache.power_state&#10;prefetch_on_access=false&#10;prefetch_on_pf_hit=false&#10;prefetcher=Null&#10;&#13;eplace_expansions=true&#10;&#13;eplacement_policy=system.cpu.icache.replacement_policy&#10;&#13;esponse_latency=2&#10;sequential_access=false&#10;size=131072&#10;system=system&#10;tag_latency=2&#10;tags=system.cpu.icache.tags&#10;tgts_per_mshr=20&#10;warmup_percentage=0&#10;write_allocator=Null&#10;write_buffers=8&#10;writeback_clean=true">
<path fill="#bab6ae" stroke="#000000" d="M774,-32C774,-32 936,-32 936,-32 942,-32 948,-38 948,-44 948,-44 948,-110 948,-110 948,-116 942,-122 936,-122 936,-122 774,-122 774,-122 768,-122 762,-116 762,-110 762,-110 762,-44 762,-44 762,-38 768,-32 774,-32"/>
<text text-anchor="middle" x="855" y="-106.8" font-family="Arial" font-size="14.00" fill="#000000">icache </text>
<text text-anchor="middle" x="855" y="-91.8" font-family="Arial" font-size="14.00" fill="#000000">: L1_ICache</text>
</a>
</g>
</g>
<g id="clust19" class="cluster">
<title>cluster_system_cpu_dcache</title>
<g id="a_clust19"><a xlink:title="addr_ranges=0:18446744073709551615&#10;assoc=2&#10;clk_domain=system.cpu_clk_domain&#10;clusivity=mostly_incl&#10;compressor=Null&#10;data_latency=2&#10;demand_mshr_reserve=1&#10;eventq_index=0&#10;is_read_only=false&#10;max_miss_count=0&#10;move_contractions=true&#10;mshrs=4&#10;power_model=&#10;power_state=system.cpu.dcache.power_state&#10;prefetch_on_access=false&#10;prefetch_on_pf_hit=false&#10;prefetcher=Null&#10;&#13;eplace_expansions=true&#10;&#13;eplacement_policy=system.cpu.dcache.replacement_policy&#10;&#13;esponse_latency=2&#10;sequential_access=false&#10;size=131072&#10;system=system&#10;tag_latency=2&#10;tags=system.cpu.dcache.tags&#10;tgts_per_mshr=20&#10;warmup_percentage=0&#10;write_allocator=Null&#10;write_buffers=8&#10;writeback_clean=false">
<path fill="#bab6ae" stroke="#000000" d="M580,-32C580,-32 742,-32 742,-32 748,-32 754,-38 754,-44 754,-44 754,-110 754,-110 754,-116 748,-122 742,-122 742,-122 580,-122 580,-122 574,-122 568,-116 568,-110 568,-110 568,-44 568,-44 568,-38 574,-32 580,-32"/>
<text text-anchor="middle" x="661" y="-106.8" font-family="Arial" font-size="14.00" fill="#000000">dcache </text>
<text text-anchor="middle" x="661" y="-91.8" font-family="Arial" font-size="14.00" fill="#000000">: L1_DCache</text>
</a>
</g>
</g>
<g id="clust30" class="cluster">
<title>cluster_system_membus</title>
<g id="a_clust30"><a xlink:title="clk_domain=system.clk_domain&#10;eventq_index=0&#10;forward_latency=4&#10;frontend_latency=3&#10;header_latency=1&#10;max_outstanding_snoops=512&#10;max_routing_table_size=512&#10;point_of_coherency=true&#10;point_of_unification=true&#10;power_model=&#10;power_state=system.membus.power_state&#10;&#13;esponse_latency=2&#10;snoop_filter=system.membus.snoop_filter&#10;snoop_response_latency=4&#10;system=system&#10;use_default_range=false&#10;width=16">
<path fill="#6f798c" stroke="#000000" d="M36,-162C36,-162 272,-162 272,-162 278,-162 284,-168 284,-174 284,-174 284,-240 284,-240 284,-246 278,-252 272,-252 272,-252 36,-252 36,-252 30,-252 24,-246 24,-240 24,-240 24,-174 24,-174 24,-168 30,-162 36,-162"/>
<text text-anchor="middle" x="154" y="-236.8" font-family="Arial" font-size="14.00" fill="#000000">membus </text>
<text text-anchor="middle" x="154" y="-221.8" font-family="Arial" font-size="14.00" fill="#000000">: SystemXBar</text>
</a>
</g>
</g>
<g id="clust33" class="cluster">
<title>cluster_system_l2</title>
<g id="a_clust33"><a xlink:title="addr_ranges=0:18446744073709551615&#10;assoc=1&#10;clk_domain=system.cpu_clk_domain&#10;clusivity=mostly_incl&#10;compressor=Null&#10;data_latency=20&#10;demand_mshr_reserve=1&#10;eventq_index=0&#10;is_read_only=false&#10;max_miss_count=0&#10;move_contractions=true&#10;mshrs=20&#10;power_model=&#10;power_state=system.l2.power_state&#10;prefetch_on_access=false&#10;prefetch_on_pf_hit=false&#10;prefetcher=Null&#10;&#13;eplace_expansions=true&#10;&#13;eplacement_policy=system.l2.replacement_policy&#10;&#13;esponse_latency=20&#10;sequential_access=false&#10;size=1048576&#10;system=system&#10;tag_latency=20&#10;tags=system.l2.tags&#10;tgts_per_mshr=12&#10;warmup_percentage=0&#10;write_allocator=Null&#10;write_buffers=8&#10;writeback_clean=false">
<path fill="#bab6ae" stroke="#000000" d="M207,-32C207,-32 369,-32 369,-32 375,-32 381,-38 381,-44 381,-44 381,-110 381,-110 381,-116 375,-122 369,-122 369,-122 207,-122 207,-122 201,-122 195,-116 195,-110 195,-110 195,-44 195,-44 195,-38 201,-32 207,-32"/>
<text text-anchor="middle" x="288" y="-106.8" font-family="Arial" font-size="14.00" fill="#000000">l2 </text>
<text text-anchor="middle" x="288" y="-91.8" font-family="Arial" font-size="14.00" fill="#000000">: L2Cache</text>
</a>
</g>
</g>
<g id="clust39" class="cluster">
<title>cluster_system_tol2bus</title>
<g id="a_clust39"><a xlink:title="clk_domain=system.cpu_clk_domain&#10;eventq_index=0&#10;forward_latency=0&#10;frontend_latency=1&#10;header_latency=1&#10;max_outstanding_snoops=512&#10;max_routing_table_size=512&#10;point_of_coherency=false&#10;point_of_unification=true&#10;power_model=&#10;power_state=system.tol2bus.power_state&#10;&#13;esponse_latency=1&#10;snoop_filter=system.tol2bus.snoop_filter&#10;snoop_response_latency=1&#10;system=system&#10;use_default_range=false&#10;width=32">
<path fill="#6f798c" stroke="#000000" d="M304,-162C304,-162 540,-162 540,-162 546,-162 552,-168 552,-174 552,-174 552,-240 552,-240 552,-246 546,-252 540,-252 540,-252 304,-252 304,-252 298,-252 292,-246 292,-240 292,-240 292,-174 292,-174 292,-168 298,-162 304,-162"/>
<text text-anchor="middle" x="422" y="-236.8" font-family="Arial" font-size="14.00" fill="#000000">tol2bus </text>
<text text-anchor="middle" x="422" y="-221.8" font-family="Arial" font-size="14.00" fill="#000000">: L2XBar</text>
</a>
</g>
</g>
<g id="clust42" class="cluster">
<title>cluster_system_mem_ctrls</title>
<g id="a_clust42"><a xlink:title="clk_domain=system.clk_domain&#10;command_window=10000&#10;disable_sanity_check=false&#10;dram=system.mem_ctrls.dram&#10;eventq_index=0&#10;mem_sched_policy=frfcfs&#10;min_reads_per_switch=16&#10;min_writes_per_switch=16&#10;power_model=&#10;power_state=system.mem_ctrls.power_state&#10;qos_policy=Null&#10;qos_priorities=1&#10;qos_priority_escalation=false&#10;qos_q_policy=fifo&#10;qos_requestors= &#160;&#160;&#160;&#160;&#160;&#160;&#160;&#160;&#160;&#160;&#160;&#160;&#160;&#160;&#10;qos_syncro_scheduler=false&#10;qos_turnaround_policy=Null&#10;static_backend_latency=10000&#10;static_frontend_latency=10000&#10;system=system&#10;write_high_thresh_perc=85&#10;write_low_thresh_perc=50">
<path fill="#bab6ae" stroke="#000000" d="M61,-32C61,-32 121,-32 121,-32 127,-32 133,-38 133,-44 133,-44 133,-110 133,-110 133,-116 127,-122 121,-122 121,-122 61,-122 61,-122 55,-122 49,-116 49,-110 49,-110 49,-44 49,-44 49,-38 55,-32 61,-32"/>
<text text-anchor="middle" x="91" y="-106.8" font-family="Arial" font-size="14.00" fill="#000000">mem_ctrls </text>
<text text-anchor="middle" x="91" y="-91.8" font-family="Arial" font-size="14.00" fill="#000000">: MemCtrl</text>
</a>
</g>
</g>
<!-- system_system_port -->
<g id="node1" class="node">
<title>system_system_port</title>
<path fill="#b6b8bc" stroke="#000000" d="M255.5,-336C255.5,-336 188.5,-336 188.5,-336 182.5,-336 176.5,-330 176.5,-324 176.5,-324 176.5,-312 176.5,-312 176.5,-306 182.5,-300 188.5,-300 188.5,-300 255.5,-300 255.5,-300 261.5,-300 267.5,-306 267.5,-312 267.5,-312 267.5,-324 267.5,-324 267.5,-330 261.5,-336 255.5,-336"/>
<text text-anchor="middle" x="222" y="-314.3" font-family="Arial" font-size="14.00" fill="#000000">system_port</text>
</g>
<!-- system_membus_cpu_side_ports -->
<g id="node8" class="node">
<title>system_membus_cpu_side_ports</title>
<path fill="#586070" stroke="#000000" d="M264,-206C264,-206 180,-206 180,-206 174,-206 168,-200 168,-194 168,-194 168,-182 168,-182 168,-176 174,-170 180,-170 180,-170 264,-170 264,-170 270,-170 276,-176 276,-182 276,-182 276,-194 276,-194 276,-200 270,-206 264,-206"/>
<text text-anchor="middle" x="222" y="-184.3" font-family="Arial" font-size="14.00" fill="#000000">cpu_side_ports</text>
</g>
<!-- system_system_port&#45;&gt;system_membus_cpu_side_ports -->
<g id="edge1" class="edge">
<title>system_system_port&#45;&gt;system_membus_cpu_side_ports</title>
<path fill="none" stroke="black" d="M222,-299.74C222,-278.36 222,-241.69 222,-216.44"/>
<polygon fill="black" stroke="black" points="225.5,-216.4 222,-206.4 218.5,-216.4 225.5,-216.4"/>
</g>
<!-- system_cpu_icache_port -->
<g id="node2" class="node">
<title>system_cpu_icache_port</title>
<path fill="#959ead" stroke="#000000" d="M935,-206C935,-206 873,-206 873,-206 867,-206 861,-200 861,-194 861,-194 861,-182 861,-182 861,-176 867,-170 873,-170 873,-170 935,-170 935,-170 941,-170 947,-176 947,-182 947,-182 947,-194 947,-194 947,-200 941,-206 935,-206"/>
<text text-anchor="middle" x="904" y="-184.3" font-family="Arial" font-size="14.00" fill="#000000">icache_port</text>
</g>
<!-- system_cpu_icache_cpu_side -->
<g id="node4" class="node">
<title>system_cpu_icache_cpu_side</title>
<path fill="#94918b" stroke="#000000" d="M927.5,-76C927.5,-76 880.5,-76 880.5,-76 874.5,-76 868.5,-70 868.5,-64 868.5,-64 868.5,-52 868.5,-52 868.5,-46 874.5,-40 880.5,-40 880.5,-40 927.5,-40 927.5,-40 933.5,-40 939.5,-46 939.5,-52 939.5,-52 939.5,-64 939.5,-64 939.5,-70 933.5,-76 927.5,-76"/>
<text text-anchor="middle" x="904" y="-54.3" font-family="Arial" font-size="14.00" fill="#000000">cpu_side</text>
</g>
<!-- system_cpu_icache_port&#45;&gt;system_cpu_icache_cpu_side -->
<g id="edge2" class="edge">
<title>system_cpu_icache_port&#45;&gt;system_cpu_icache_cpu_side</title>
<path fill="none" stroke="black" d="M904,-169.74C904,-148.36 904,-111.69 904,-86.44"/>
<polygon fill="black" stroke="black" points="907.5,-86.4 904,-76.4 900.5,-86.4 907.5,-86.4"/>
</g>
<!-- system_cpu_dcache_port -->
<g id="node3" class="node">
<title>system_cpu_dcache_port</title>
<path fill="#959ead" stroke="#000000" d="M743.5,-206C743.5,-206 676.5,-206 676.5,-206 670.5,-206 664.5,-200 664.5,-194 664.5,-194 664.5,-182 664.5,-182 664.5,-176 670.5,-170 676.5,-170 676.5,-170 743.5,-170 743.5,-170 749.5,-170 755.5,-176 755.5,-182 755.5,-182 755.5,-194 755.5,-194 755.5,-200 749.5,-206 743.5,-206"/>
<text text-anchor="middle" x="710" y="-184.3" font-family="Arial" font-size="14.00" fill="#000000">dcache_port</text>
</g>
<!-- system_cpu_dcache_cpu_side -->
<g id="node6" class="node">
<title>system_cpu_dcache_cpu_side</title>
<path fill="#94918b" stroke="#000000" d="M733.5,-76C733.5,-76 686.5,-76 686.5,-76 680.5,-76 674.5,-70 674.5,-64 674.5,-64 674.5,-52 674.5,-52 674.5,-46 680.5,-40 686.5,-40 686.5,-40 733.5,-40 733.5,-40 739.5,-40 745.5,-46 745.5,-52 745.5,-52 745.5,-64 745.5,-64 745.5,-70 739.5,-76 733.5,-76"/>
<text text-anchor="middle" x="710" y="-54.3" font-family="Arial" font-size="14.00" fill="#000000">cpu_side</text>
</g>
<!-- system_cpu_dcache_port&#45;&gt;system_cpu_dcache_cpu_side -->
<g id="edge3" class="edge">
<title>system_cpu_dcache_port&#45;&gt;system_cpu_dcache_cpu_side</title>
<path fill="none" stroke="black" d="M710,-169.74C710,-148.36 710,-111.69 710,-86.44"/>
<polygon fill="black" stroke="black" points="713.5,-86.4 710,-76.4 706.5,-86.4 713.5,-86.4"/>
</g>
<!-- system_cpu_icache_mem_side -->
<g id="node5" class="node">
<title>system_cpu_icache_mem_side</title>
<path fill="#94918b" stroke="#000000" d="M838,-76C838,-76 782,-76 782,-76 776,-76 770,-70 770,-64 770,-64 770,-52 770,-52 770,-46 776,-40 782,-40 782,-40 838,-40 838,-40 844,-40 850,-46 850,-52 850,-52 850,-64 850,-64 850,-70 844,-76 838,-76"/>
<text text-anchor="middle" x="810" y="-54.3" font-family="Arial" font-size="14.00" fill="#000000">mem_side</text>
</g>
<!-- system_cpu_dcache_mem_side -->
<g id="node7" class="node">
<title>system_cpu_dcache_mem_side</title>
<path fill="#94918b" stroke="#000000" d="M644,-76C644,-76 588,-76 588,-76 582,-76 576,-70 576,-64 576,-64 576,-52 576,-52 576,-46 582,-40 588,-40 588,-40 644,-40 644,-40 650,-40 656,-46 656,-52 656,-52 656,-64 656,-64 656,-70 650,-76 644,-76"/>
<text text-anchor="middle" x="616" y="-54.3" font-family="Arial" font-size="14.00" fill="#000000">mem_side</text>
</g>
<!-- system_l2_mem_side -->
<g id="node11" class="node">
<title>system_l2_mem_side</title>
<path fill="#94918b" stroke="#000000" d="M271,-76C271,-76 215,-76 215,-76 209,-76 203,-70 203,-64 203,-64 203,-52 203,-52 203,-46 209,-40 215,-40 215,-40 271,-40 271,-40 277,-40 283,-46 283,-52 283,-52 283,-64 283,-64 283,-70 277,-76 271,-76"/>
<text text-anchor="middle" x="243" y="-54.3" font-family="Arial" font-size="14.00" fill="#000000">mem_side</text>
</g>
<!-- system_membus_cpu_side_ports&#45;&gt;system_l2_mem_side -->
<g id="edge4" class="edge">
<title>system_membus_cpu_side_ports&#45;&gt;system_l2_mem_side</title>
<path fill="none" stroke="black" d="M226.48,-159.72C230.61,-134.52 236.63,-97.84 240.15,-76.4"/>
<polygon fill="black" stroke="black" points="223,-159.3 224.83,-169.74 229.91,-160.44 223,-159.3"/>
</g>
<!-- system_membus_mem_side_ports -->
<g id="node9" class="node">
<title>system_membus_mem_side_ports</title>
<path fill="#586070" stroke="#000000" d="M138,-206C138,-206 44,-206 44,-206 38,-206 32,-200 32,-194 32,-194 32,-182 32,-182 32,-176 38,-170 44,-170 44,-170 138,-170 138,-170 144,-170 150,-176 150,-182 150,-182 150,-194 150,-194 150,-200 144,-206 138,-206"/>
<text text-anchor="middle" x="91" y="-184.3" font-family="Arial" font-size="14.00" fill="#000000">mem_side_ports</text>
</g>
<!-- system_mem_ctrls_port -->
<g id="node14" class="node">
<title>system_mem_ctrls_port</title>
<path fill="#94918b" stroke="#000000" d="M106,-76C106,-76 76,-76 76,-76 70,-76 64,-70 64,-64 64,-64 64,-52 64,-52 64,-46 70,-40 76,-40 76,-40 106,-40 106,-40 112,-40 118,-46 118,-52 118,-52 118,-64 118,-64 118,-70 112,-76 106,-76"/>
<text text-anchor="middle" x="91" y="-54.3" font-family="Arial" font-size="14.00" fill="#000000">port</text>
</g>
<!-- system_membus_mem_side_ports&#45;&gt;system_mem_ctrls_port -->
<g id="edge5" class="edge">
<title>system_membus_mem_side_ports&#45;&gt;system_mem_ctrls_port</title>
<path fill="none" stroke="black" d="M91,-169.74C91,-148.36 91,-111.69 91,-86.44"/>
<polygon fill="black" stroke="black" points="94.5,-86.4 91,-76.4 87.5,-86.4 94.5,-86.4"/>
</g>
<!-- system_l2_cpu_side -->
<g id="node10" class="node">
<title>system_l2_cpu_side</title>
<path fill="#94918b" stroke="#000000" d="M360.5,-76C360.5,-76 313.5,-76 313.5,-76 307.5,-76 301.5,-70 301.5,-64 301.5,-64 301.5,-52 301.5,-52 301.5,-46 307.5,-40 313.5,-40 313.5,-40 360.5,-40 360.5,-40 366.5,-40 372.5,-46 372.5,-52 372.5,-52 372.5,-64 372.5,-64 372.5,-70 366.5,-76 360.5,-76"/>
<text text-anchor="middle" x="337" y="-54.3" font-family="Arial" font-size="14.00" fill="#000000">cpu_side</text>
</g>
<!-- system_tol2bus_cpu_side_ports -->
<g id="node12" class="node">
<title>system_tol2bus_cpu_side_ports</title>
<path fill="#586070" stroke="#000000" d="M532,-206C532,-206 448,-206 448,-206 442,-206 436,-200 436,-194 436,-194 436,-182 436,-182 436,-176 442,-170 448,-170 448,-170 532,-170 532,-170 538,-170 544,-176 544,-182 544,-182 544,-194 544,-194 544,-200 538,-206 532,-206"/>
<text text-anchor="middle" x="490" y="-184.3" font-family="Arial" font-size="14.00" fill="#000000">cpu_side_ports</text>
</g>
<!-- system_tol2bus_cpu_side_ports&#45;&gt;system_cpu_icache_mem_side -->
<g id="edge6" class="edge">
<title>system_tol2bus_cpu_side_ports&#45;&gt;system_cpu_icache_mem_side</title>
<path fill="none" stroke="black" d="M541.69,-166.49C546.49,-164.87 551.31,-163.34 556,-162 643.99,-136.81 679.41,-168.91 758,-122 776.51,-110.95 791.37,-90.81 800.39,-76.27"/>
<polygon fill="black" stroke="black" points="540.17,-163.32 531.9,-169.94 542.49,-169.92 540.17,-163.32"/>
</g>
<!-- system_tol2bus_cpu_side_ports&#45;&gt;system_cpu_dcache_mem_side -->
<g id="edge7" class="edge">
<title>system_tol2bus_cpu_side_ports&#45;&gt;system_cpu_dcache_mem_side</title>
<path fill="none" stroke="black" d="M514.24,-162.37C539.06,-137.16 577.01,-98.6 598.87,-76.4"/>
<polygon fill="black" stroke="black" points="511.51,-160.16 506.99,-169.74 516.5,-165.07 511.51,-160.16"/>
</g>
<!-- system_tol2bus_mem_side_ports -->
<g id="node13" class="node">
<title>system_tol2bus_mem_side_ports</title>
<path fill="#586070" stroke="#000000" d="M406,-206C406,-206 312,-206 312,-206 306,-206 300,-200 300,-194 300,-194 300,-182 300,-182 300,-176 306,-170 312,-170 312,-170 406,-170 406,-170 412,-170 418,-176 418,-182 418,-182 418,-194 418,-194 418,-200 412,-206 406,-206"/>
<text text-anchor="middle" x="359" y="-184.3" font-family="Arial" font-size="14.00" fill="#000000">mem_side_ports</text>
</g>
<!-- system_tol2bus_mem_side_ports&#45;&gt;system_l2_cpu_side -->
<g id="edge8" class="edge">
<title>system_tol2bus_mem_side_ports&#45;&gt;system_l2_cpu_side</title>
<path fill="none" stroke="black" d="M356.03,-169.74C352.36,-148.36 346.06,-111.69 341.72,-86.44"/>
<polygon fill="black" stroke="black" points="345.13,-85.66 339.99,-76.4 338.23,-86.85 345.13,-85.66"/>
</g>
</g>
</svg>
